<svg width="212" height="80" viewBox="0 0 212 80" fill="none" xmlns="http://www.w3.org/2000/svg">
<path d="M46.6594 34.8503C47.2678 34.9526 47.8867 35.0125 48.481 35.1677C51.3753 35.9152 52.9613 38.2105 52.6729 41.1829C52.4057 43.8943 50.8794 45.7031 48.2349 46.433C48.1188 46.4647 48.0028 46.5071 47.8305 46.5635C49.529 49.564 51.2135 52.5293 52.9683 55.6251C51.9696 55.6251 51.108 55.6533 50.257 55.6004C50.0882 55.6004 49.9053 55.2972 49.7857 55.0962C48.2314 52.3918 46.6981 49.6769 45.1402 46.9866C45.0852 46.886 45.0093 46.7985 44.9177 46.7297C44.8261 46.661 44.7209 46.6127 44.6092 46.5882C42.0877 46.5635 39.5662 46.5705 36.9604 46.5705V55.5793H34.3123C34.3123 55.3148 34.351 35.1289 34.3721 34.8503H46.6594ZM36.9498 44.1271C37.2699 44.1271 43.206 44.1271 45.8893 44.1271C46.344 44.1296 46.7982 44.0931 47.2467 44.0177C48.5303 43.7745 49.5079 43.1398 49.8526 41.7894C50.2429 40.2697 49.7893 38.8064 48.6815 38.006C47.9753 37.528 47.1343 37.2906 46.2831 37.3291C43.3291 37.3291 37.1116 37.3643 36.9498 37.382V44.1271Z" fill="white"/>
<path d="M0 79.4214V58.7736C0.161768 58.756 6.30542 58.6784 9.22076 58.7313C13.0293 58.8054 16.1873 60.1981 18.2797 63.5301C19.5493 65.554 19.8728 67.8141 19.6864 70.1518C19.3523 74.5944 16.9012 77.7043 12.7093 78.9454C11.719 79.2423 10.6937 79.4059 9.66034 79.432C6.56917 79.4849 0.165284 79.4391 0 79.4214ZM2.61642 76.9956C2.70433 77.0238 7.28658 77.1084 9.51616 77.0309C11.6262 76.9533 13.5287 76.3257 15.0303 74.7355C16.532 73.1453 17.0419 71.2624 17.0489 69.168C17.0489 67.3275 16.6586 65.6033 15.5016 64.1119C13.8804 62.021 11.6719 61.1889 9.10471 61.1642C7.12129 61.143 2.79577 61.1854 2.61642 61.203V76.9956Z" fill="white"/>
<path d="M48.6851 72.4789V79.4179H46.2234V63.4842C46.4626 63.4842 46.6841 63.449 46.9022 63.449C50.2946 63.449 53.687 63.449 57.0795 63.449C58.356 63.449 59.608 63.6147 60.6911 64.3622C62.1611 65.3812 62.6147 66.8586 62.4002 68.5475C62.1857 70.2364 61.194 71.4528 59.6044 72.1263C59.2879 72.2603 58.9503 72.3414 58.5494 72.4789L62.9488 79.4532C62.0028 79.4532 61.1905 79.4814 60.3711 79.432C60.1917 79.432 59.9948 79.1429 59.8682 78.9525C58.5565 76.9427 57.2483 74.9364 55.9612 72.9126C55.8777 72.762 55.7517 72.6395 55.599 72.5605C55.4464 72.4814 55.2739 72.4494 55.1031 72.4683C52.9931 72.4895 50.8866 72.4789 48.6851 72.4789ZM48.7449 65.7796V70.0883C51.7235 70.0883 54.6529 70.0883 57.5859 70.0883C57.8122 70.0768 58.0364 70.039 58.254 69.9755C59.309 69.7216 59.8471 68.9741 59.833 67.8388C59.8482 67.3677 59.6875 66.9079 59.3825 66.5492C59.0775 66.1906 58.65 65.9589 58.1837 65.8995C57.7987 65.8267 57.4079 65.7889 57.0162 65.7867C54.8675 65.7867 52.7223 65.7867 50.5736 65.7867L48.7449 65.7796Z" fill="white"/>
<path d="M32.2374 62.9977C34.7237 62.9801 37.0095 63.5654 39.0281 65.0886C43.125 68.1843 43.1075 74.5663 39.1652 77.729C35.223 80.8918 28.6152 80.7296 25.0141 77.3764C24.1381 76.5685 23.4526 75.5751 23.0074 74.4684C22.5621 73.3617 22.3683 72.1694 22.4401 70.9782C22.5118 69.787 22.8473 68.6268 23.4221 67.5818C23.9969 66.5368 24.7966 65.6333 25.7632 64.937C27.6938 63.5125 29.8917 62.9942 32.2374 62.9977ZM32.4202 77.5739C33.6558 77.6118 34.882 77.3481 35.9932 76.8052C37.9203 75.8462 39.225 74.3864 39.4501 72.1581C39.6892 69.7781 38.789 67.9269 36.8126 66.5906C34.3052 64.9017 30.2153 64.9052 27.6973 66.5906C26.9915 67.0437 26.3932 67.6462 25.9444 68.3558C25.4955 69.0654 25.207 69.8649 25.0991 70.6982C24.9912 71.5315 25.0665 72.3784 25.3197 73.1794C25.573 73.9804 25.998 74.7161 26.565 75.3349C28.0912 77.0168 30.0711 77.5915 32.4202 77.5739Z" fill="white"/>
<path d="M65.3719 39.1554C67.8582 39.1378 70.144 39.7231 72.1626 41.2498C76.2595 44.3456 76.2419 50.7275 72.2997 53.8867C68.3575 57.046 61.7497 56.8908 58.1521 53.5341C57.2755 52.7265 56.5895 51.7332 56.1439 50.6265C55.6983 49.5197 55.5043 48.3272 55.576 47.1358C55.6478 45.9444 55.9834 44.784 56.5586 43.739C57.1338 42.694 57.934 41.7907 58.9011 41.0947C60.8388 39.6702 63.0227 39.1519 65.3719 39.1554ZM65.5547 53.7316C66.7912 53.7725 68.019 53.5099 69.1312 52.9665C71.0548 52.0039 72.3595 50.5442 72.5846 48.3158C72.8237 45.9393 71.9234 44.0847 69.9471 42.7483C67.4397 41.0594 63.3533 41.0629 60.8353 42.7483C60.1292 43.2015 59.5305 43.8041 59.0813 44.5139C58.6321 45.2237 58.3433 46.0234 58.235 46.857C58.1268 47.6905 58.2018 48.5377 58.4548 49.3392C58.7077 50.1406 59.1326 50.8768 59.6994 51.4962C61.2257 53.1604 63.2056 53.7457 65.5547 53.7457V53.7316Z" fill="white"/>
<path d="M133.634 69.7287V72.0805H125.479V77.0979H138.582V79.425H122.915V63.4631H137.879V65.7761H125.482V69.7287H133.634Z" fill="white"/>
<path d="M88.9721 77.112H102.089V79.4391H86.44V63.4631H101.4V65.7867H88.9263C88.9263 67.0596 88.958 69.7252 88.958 69.7252H97.0956V72.0875H88.9721V77.112Z" fill="white"/>
<path d="M97.4124 51.4961C98.8824 52.2541 99.1462 52.6667 101.84 53.3578C103.746 53.8584 105.381 54.0242 107.15 53.453C108.268 53.1004 109.225 52.4939 109.524 51.2352C109.658 50.7297 109.61 50.1928 109.387 49.7197C109.164 49.2467 108.782 48.8679 108.307 48.6507C107.027 48.0054 105.627 48.0477 104.249 47.9278C102.793 47.7974 101.327 47.6881 99.8917 47.4166C98.3795 47.131 97.3175 46.2495 97.0432 44.6241C96.7548 42.914 97.2577 41.5177 98.6644 40.4846C99.7379 39.7319 101 39.2947 102.308 39.2223C105.402 38.9354 108.504 39.679 111.135 41.3379C111.187 41.3696 111.237 41.4084 111.349 41.486L110.073 43.5733C108.654 42.631 107.065 41.9759 105.395 41.6446C103.852 41.359 102.308 41.292 100.824 41.9972C100.173 42.2969 99.6139 42.7342 99.533 43.5345C99.4947 43.7297 99.4963 43.9306 99.5377 44.1252C99.5791 44.3197 99.6594 44.5038 99.7738 44.6663C99.8882 44.8288 100.034 44.9664 100.203 45.0706C100.372 45.1749 100.561 45.2436 100.757 45.2728C101.812 45.4985 102.916 45.5549 103.999 45.6818C105.511 45.8617 107.059 45.8934 108.525 46.253C110.843 46.8278 112.017 48.2875 112.19 50.3889C112.362 52.4904 111.289 54.2322 109.239 55.2653C107.481 56.1538 105.578 56.242 103.665 56.0762C101.272 55.8668 98.9508 55.1518 96.8533 53.9783C96.6428 53.8437 96.444 53.6916 96.259 53.5235C96.259 53.5235 97.1803 51.891 97.4124 51.4961Z" fill="white"/>
<path d="M141.979 75.2891C143.449 76.0436 143.713 76.4562 146.407 77.1473C148.313 77.6479 149.945 77.8137 151.717 77.2425C152.835 76.8899 153.792 76.2834 154.091 75.0247C154.227 74.5178 154.179 73.9789 153.955 73.5042C153.732 73.0296 153.347 72.65 152.871 72.4331C151.594 71.7878 150.194 71.8302 148.816 71.7279C147.36 71.601 145.893 71.4881 144.459 71.2166C142.943 70.931 141.884 70.0531 141.61 68.4241C141.322 66.714 141.821 65.3213 143.228 64.2847C144.303 63.5322 145.566 63.0951 146.875 63.0224C149.968 62.7368 153.068 63.4803 155.698 65.138L155.916 65.286C155.487 65.9912 155.082 66.6682 154.65 67.3769C153.233 66.4344 151.645 65.7802 149.976 65.4518C148.429 65.1626 146.885 65.0992 145.405 65.8044C144.754 66.1041 144.195 66.5448 144.114 67.3417C144.075 67.5366 144.076 67.7375 144.117 67.932C144.158 68.1265 144.238 68.3106 144.352 68.4732C144.466 68.6358 144.612 68.7734 144.781 68.8777C144.95 68.982 145.138 69.0508 145.334 69.0799C146.389 69.3056 147.493 69.362 148.577 69.4925C150.089 69.6723 151.64 69.7005 153.106 70.0637C155.424 70.6349 156.598 72.0946 156.77 74.1961C156.943 76.2975 155.87 78.0393 153.82 79.0724C152.062 79.9609 150.159 80.0526 148.246 79.8869C145.851 79.6697 143.529 78.9488 141.431 77.7714C141.221 77.6373 141.023 77.4851 140.84 77.3165C140.84 77.3165 141.751 75.6805 141.979 75.2891Z" fill="white"/>
<path d="M79.0201 51.4963C80.49 52.2543 80.7538 52.6669 83.4441 53.358C85.3536 53.8586 86.9854 54.0244 88.7578 53.4532C89.8761 53.1006 90.8326 52.4941 91.1315 51.2354C91.2649 50.7295 91.2156 50.1926 90.9923 49.7196C90.769 49.2466 90.3861 48.8681 89.9113 48.6508C88.6312 48.0056 87.2315 48.0479 85.8565 47.928C84.4006 47.7976 82.9306 47.6883 81.4993 47.4168C79.9836 47.1312 78.9251 46.2497 78.6508 44.6242C78.3624 42.9142 78.8618 41.5179 80.2685 40.4848C81.3434 39.7323 82.6063 39.2952 83.9153 39.2225C87.0085 38.9351 90.1098 39.6787 92.7387 41.3381C92.7914 41.3698 92.8406 41.4086 92.9567 41.4862C92.5277 42.1914 92.1197 42.8648 91.6907 43.577C90.2731 42.6349 88.6854 41.9797 87.017 41.6484C85.4697 41.3628 83.9258 41.2958 82.4453 42.001C81.7947 42.3007 81.2391 42.7379 81.1547 43.5383C81.1169 43.7334 81.1189 43.9342 81.1605 44.1285C81.2021 44.3228 81.2825 44.5067 81.3968 44.6691C81.5111 44.8315 81.657 44.969 81.8257 45.0734C81.9944 45.1778 82.1825 45.2469 82.3785 45.2765C83.4335 45.5022 84.5377 45.5586 85.6209 45.6856C87.1331 45.8654 88.6839 45.8971 90.1504 46.2567C92.4679 46.8315 93.6425 48.2912 93.8148 50.3927C93.9871 52.4941 92.9145 54.2359 90.8608 55.269C89.1024 56.1575 87.1999 56.2457 85.2903 56.08C82.8965 55.8699 80.5739 55.155 78.475 53.9821C78.2645 53.8474 78.0657 53.6953 77.8806 53.5272C77.8806 53.5272 78.7915 51.8912 79.0201 51.4963Z" fill="white"/>
<path d="M80.9085 63.4102V79.4179C80.5531 79.5175 80.1764 79.5098 79.8254 79.3956C79.4745 79.2814 79.165 79.066 78.9356 78.7762C76.0414 75.4901 69.532 68.1456 69.4722 68.1808V79.425H67.0281V63.4596C67.6963 63.3855 68.266 63.3045 68.8322 63.9462C71.7405 67.2464 78.4608 74.5486 78.4608 74.5486L78.4222 63.3997L80.9085 63.4102Z" fill="white"/>
<path d="M108.159 77.1156H120.028V79.4109H105.69V63.4702H108.152L108.159 77.1156Z" fill="white"/>
<path d="M119.216 55.6284H116.649V39.5291H119.216C119.216 39.5291 119.216 55.3393 119.216 55.6284Z" fill="white"/>
<path d="M135.463 37.403L169.29 71.5093L203.402 37.403L169.434 3.29321L135.463 37.403Z" fill="url(#paint0_radial_118_25)"/>
<path d="M165.228 40.0193C165.228 40.0193 170.911 38.7923 170.911 32.1389C170.911 25.4855 164.971 23.384 162.316 23.384H153.44V49.0316H158.603V39.4376L165.144 49.0316H171.157L165.228 40.0193ZM163.273 35.7318H158.729V28.5848H162.802C165.46 28.6835 165.569 31.3597 165.569 31.3597V33.0909C165.569 35.1254 163.273 35.7318 163.273 35.7318Z" fill="url(#paint1_radial_118_25)"/>
<path d="M171.157 23.5462C171.157 23.5462 173.011 24.5405 174.146 28.5848C174.146 28.5848 182.625 27.8091 182.625 36.3418C182.625 44.8746 173.904 44.0671 173.904 44.0671V37.0646C173.194 38.8068 172.049 40.3358 170.577 41.5038L175.458 48.9329C175.458 48.9329 187.942 48.7707 187.767 36.2396C187.626 27.2943 182.956 23.384 171.175 23.384" fill="url(#paint2_radial_118_25)"/>
<path d="M169.385 0L131.985 37.403L169.385 74.806L206.69 37.403L169.385 0ZM134.014 37.403L169.434 2.03446L204.755 37.403L169.434 72.7857L134.014 37.403Z" fill="#A9AAAF"/>
<path d="M174.248 79.7774L172.391 74.6931L172.824 74.2559L177.895 76.1175L177.392 76.6218L175.88 76.0541L174.15 77.7888L174.723 79.2979L174.248 79.7774ZM173.946 77.2494L175.352 75.839L173.155 75.0104L173.123 75.0421L173.946 77.2494Z" fill="white"/>
<path d="M178.707 75.3032L175.243 71.8302L176.784 70.2894C177.008 70.0304 177.285 69.8219 177.595 69.6773C177.905 69.5327 178.242 69.4553 178.584 69.4502C178.909 69.4571 179.229 69.5282 179.526 69.6595C179.823 69.7908 180.091 69.9797 180.315 70.2153C180.556 70.4471 180.748 70.7251 180.88 71.0327C181.013 71.3404 181.082 71.6715 181.085 72.0065C181.075 72.3426 180.996 72.673 180.852 72.9766C180.708 73.2801 180.502 73.5502 180.248 73.7695L178.707 75.3032ZM179.822 73.3675C180.009 73.2078 180.16 73.0109 180.266 72.7892C180.372 72.5676 180.43 72.3262 180.438 72.0805C180.425 71.5579 180.208 71.0613 179.833 70.6984C179.481 70.329 178.998 70.1137 178.489 70.099C178.239 70.102 177.992 70.1586 177.765 70.265C177.538 70.3714 177.337 70.5252 177.174 70.716L176.119 71.7738L178.764 74.4288L179.822 73.3675Z" fill="white"/>
<path d="M182.713 64.3447L184.563 69.4326L184.134 69.8628L179.059 68.0082L179.576 67.4863L183.768 69.073L183.8 69.0377L182.214 64.8419L182.713 64.3447Z" fill="white"/>
<path d="M184.999 61.8553C185.374 61.5162 185.841 61.295 186.34 61.2191C186.84 61.1433 187.351 61.2161 187.809 61.4286C188.268 61.6411 188.654 61.9839 188.921 62.4145C189.187 62.8451 189.321 63.3446 189.307 63.851C189.293 64.3575 189.13 64.8486 188.84 65.2634C188.55 65.6783 188.145 65.9987 187.675 66.1849C187.205 66.3711 186.691 66.4149 186.197 66.3109C185.702 66.2069 185.249 65.9596 184.893 65.5998C184.414 65.0885 184.155 64.4074 184.175 63.7057C184.195 63.004 184.491 62.3386 184.999 61.8553ZM188.234 65.0991C188.508 64.8152 188.692 64.4565 188.764 64.0681C188.835 63.6796 188.791 63.2786 188.636 62.9154C188.481 62.5522 188.223 62.2429 187.893 62.0263C187.564 61.8098 187.178 61.6955 186.784 61.698C186.39 61.7004 186.005 61.8194 185.678 62.04C185.352 62.2606 185.097 62.5731 184.947 62.9382C184.796 63.3033 184.757 63.7048 184.833 64.0923C184.909 64.4799 185.098 64.8362 185.375 65.1168C185.563 65.3051 185.786 65.4545 186.031 65.5563C186.277 65.6581 186.54 65.7103 186.805 65.71C187.071 65.7096 187.334 65.6568 187.579 65.5544C187.824 65.452 188.047 65.302 188.234 65.1132V65.0991Z" fill="white"/>
<path d="M191.593 57.0037C190.955 57.0499 190.355 57.3239 189.901 57.7759C189.706 57.9622 189.551 58.186 189.444 58.434C189.338 58.682 189.282 58.9489 189.281 59.2189C189.28 59.4889 189.333 59.7563 189.438 60.0052C189.542 60.254 189.695 60.4792 189.888 60.6673C190.082 60.8553 190.311 61.0023 190.562 61.0994C190.813 61.1966 191.081 61.2419 191.351 61.2327C191.62 61.2235 191.884 61.1599 192.128 61.0457C192.372 60.9316 192.591 60.7692 192.771 60.5684C193.177 60.1745 193.448 59.6626 193.548 59.1051L192.714 58.2801L191.589 59.4084L191.181 58.9994L192.725 57.4515L194.177 58.9077C194.056 59.7004 193.687 60.4338 193.122 61.0021C192.888 61.2569 192.604 61.4617 192.289 61.6044C191.974 61.7471 191.633 61.8247 191.287 61.8327C190.941 61.8406 190.598 61.7786 190.276 61.6505C189.955 61.5224 189.662 61.3307 189.416 61.0869C189.17 60.8431 188.976 60.5521 188.844 60.2314C188.713 59.9106 188.647 59.5666 188.651 59.2198C188.655 58.873 188.728 58.5305 188.867 58.2128C189.006 57.8951 189.207 57.6086 189.458 57.3704C190.036 56.806 190.792 56.4618 191.596 56.3972L191.593 57.0037Z" fill="white"/>
<path d="M195.296 58.682L193.439 53.5976L193.871 53.1604L198.943 55.0221L198.44 55.5087L196.927 54.941L195.197 56.6757L195.771 58.1848L195.296 58.682ZM194.993 56.1539L196.4 54.7435L194.202 53.915L194.17 53.9467L194.993 56.1539Z" fill="white"/>
<path d="M199.748 54.2004L196.284 50.7274L197.824 49.1866C198.049 48.9277 198.325 48.7191 198.635 48.5745C198.946 48.4299 199.283 48.3525 199.625 48.3474C199.949 48.3543 200.269 48.4254 200.566 48.5568C200.863 48.6881 201.131 48.8769 201.355 49.1125C201.596 49.3443 201.789 49.6223 201.921 49.9299C202.053 50.2376 202.123 50.5687 202.125 50.9037C202.116 51.2401 202.036 51.5708 201.891 51.8745C201.747 52.1782 201.54 52.448 201.285 52.6667L199.748 54.2004ZM200.863 52.2647C201.049 52.1051 201.2 51.9081 201.306 51.6865C201.412 51.4648 201.471 51.2234 201.478 50.9777C201.466 50.4551 201.249 49.9585 200.873 49.5956C200.522 49.2263 200.039 49.0109 199.53 48.9962C199.279 48.9992 199.033 49.0558 198.806 49.1622C198.579 49.2686 198.377 49.4224 198.215 49.6132L197.16 50.671L199.804 53.326L200.863 52.2647Z" fill="white"/>
<path d="M202.146 44.6771C202.522 44.3379 202.988 44.1167 203.488 44.0409C203.987 43.965 204.498 44.0379 204.957 44.2504C205.416 44.4629 205.802 44.8057 206.068 45.2363C206.334 45.6669 206.469 46.1664 206.454 46.6728C206.44 47.1793 206.278 47.6703 205.988 48.0852C205.698 48.5001 205.293 48.8205 204.823 49.0067C204.353 49.1929 203.839 49.2367 203.344 49.1327C202.85 49.0287 202.397 48.7814 202.041 48.4216C201.561 47.9103 201.303 47.2292 201.323 46.5275C201.342 45.8258 201.639 45.1604 202.146 44.6771ZM205.382 47.9209C205.601 47.7443 205.78 47.5235 205.908 47.2728C206.036 47.0222 206.111 46.7472 206.126 46.4659C206.141 46.1846 206.097 45.9033 205.996 45.6402C205.896 45.3771 205.741 45.1382 205.543 44.939C205.344 44.7398 205.106 44.5848 204.843 44.484C204.581 44.3833 204.3 44.3391 204.02 44.3543C203.739 44.3695 203.465 44.4438 203.215 44.5723C202.965 44.7008 202.745 44.8807 202.568 45.1002C202.349 45.2767 202.17 45.4976 202.042 45.7482C201.914 45.9989 201.84 46.2739 201.825 46.5552C201.809 46.8365 201.853 47.1178 201.954 47.3809C202.054 47.644 202.209 47.8829 202.408 48.0821C202.606 48.2813 202.845 48.4363 203.107 48.537C203.369 48.6378 203.65 48.682 203.931 48.6668C204.211 48.6516 204.485 48.5773 204.735 48.4488C204.985 48.3203 205.206 48.1404 205.382 47.9209Z" fill="white"/>
<path d="M208.336 40.1181C207.681 40.1892 207.073 40.4931 206.623 40.9749C206.18 41.4227 205.881 42.0326 206.317 42.4734C206.753 42.9141 207.372 42.3676 207.949 41.8352C208.526 41.3028 209.633 40.3543 210.558 41.2851C211.367 42.0926 210.973 43.1327 210.14 43.9684C209.475 44.6578 208.567 45.0579 207.611 45.0826L207.573 44.4796C208.393 44.4771 209.18 44.1487 209.76 43.5664C210.347 42.9741 210.625 42.2724 210.157 41.8035C209.637 41.2851 209.028 41.7365 208.399 42.283C207.604 42.9882 206.7 43.7815 205.902 42.9882C205.104 42.1948 205.631 41.1935 206.254 40.5729C206.802 40.0046 207.521 39.6329 208.3 39.5151L208.336 40.1181Z" fill="white"/>
<path d="M135.54 56.0199C135.949 54.9215 136.178 53.7642 136.219 52.5927L133.033 52.4023C133.033 52.4023 133.033 52.5856 133.008 52.8712C132.266 51.9404 131.686 51.1893 131.468 50.8685C131.468 50.8685 134.436 49.7719 134.345 47.0746C134.253 44.3773 131.436 43.7532 130.406 43.7532C129.555 43.7532 127.192 44.1375 126.64 46.3835C126.451 47.1983 126.537 48.0528 126.886 48.8129L127.406 49.9905C127.406 49.9905 124.874 51.9333 124.906 54.8457C124.937 57.7581 126.903 59.2355 128.718 59.6128C129.719 59.8084 130.75 59.7867 131.742 59.5493C132.307 59.4474 132.844 59.2275 133.318 58.9041C133.481 58.8079 133.637 58.6982 133.782 58.5762L134.689 59.7397H138.582C138.582 59.7397 137.151 57.9768 135.54 56.0199ZM130.322 46.6198C130.429 46.598 130.541 46.5987 130.648 46.6217C130.756 46.6448 130.858 46.6897 130.947 46.7537C131.795 47.3602 130.093 48.4039 130.093 48.4039C129.288 47.0464 129.892 46.6938 130.322 46.6198ZM128.781 56.383C127.28 54.8457 128.968 52.4657 128.968 52.4657L131.827 56.0974C130.434 57.8181 128.781 56.383 128.781 56.383Z" fill="#A9AAAF"/>
<defs>
<radialGradient id="paint0_radial_118_25" cx="0" cy="0" r="1" gradientUnits="userSpaceOnUse" gradientTransform="translate(169.434 37.403) scale(33.9958 34.0851)">
<stop stop-color="white"/>
<stop offset="0.75" stop-color="#ABADB2"/>
</radialGradient>
<radialGradient id="paint1_radial_118_25" cx="0" cy="0" r="1" gradientUnits="userSpaceOnUse" gradientTransform="translate(162.299 36.2078) scale(11.0002 11.0291)">
<stop stop-color="#007D81"/>
<stop offset="1" stop-color="#00494F"/>
</radialGradient>
<radialGradient id="paint2_radial_118_25" cx="0" cy="0" r="1" gradientUnits="userSpaceOnUse" gradientTransform="translate(12436.1 7563.36) scale(531.043 789.204)">
<stop stop-color="#007D81"/>
<stop offset="1" stop-color="#00494F"/>
</radialGradient>
</defs>
</svg>
