<svg width="138" height="41" viewBox="0 0 138 41" fill="none" xmlns="http://www.w3.org/2000/svg">
<path d="M40.8334 0.669189C41.3658 0.758674 41.9075 0.811128 42.4276 0.946898C44.9605 1.60106 46.3485 3.60983 46.0961 6.21105C45.8622 8.58393 44.5265 10.1669 42.2122 10.8056C42.1106 10.8334 42.0091 10.8704 41.8583 10.9198C43.3447 13.5457 44.8189 16.1407 46.3546 18.85C45.4806 18.85 44.7266 18.8747 43.9818 18.8284C43.8341 18.8284 43.674 18.563 43.5694 18.3871C42.2091 16.0204 40.8673 13.6444 39.5039 11.2901C39.4557 11.2021 39.3893 11.1254 39.3092 11.0653C39.229 11.0052 39.137 10.9629 39.0392 10.9414C36.8326 10.9198 34.6259 10.926 32.3454 10.926V18.8099H30.028C30.028 18.5784 30.0619 0.912958 30.0803 0.669189H40.8334ZM32.3362 8.78759C32.6163 8.78759 37.8112 8.78759 40.1594 8.78759C40.5574 8.78986 40.9549 8.75785 41.3474 8.69194C42.4707 8.47902 43.3263 7.9236 43.6279 6.74179C43.9695 5.41186 43.5725 4.13131 42.603 3.43086C41.985 3.01248 41.2491 2.80475 40.5041 2.83842C37.9189 2.83842 32.4778 2.86927 32.3362 2.8847V8.78759Z" fill="#215257"/>
<path d="M0 39.6751V21.6054C0.141569 21.59 5.51811 21.5221 8.06944 21.5684C11.4025 21.6332 14.1661 22.852 15.9973 25.768C17.1083 27.5392 17.3915 29.5171 17.2283 31.5629C16.936 35.4508 14.7909 38.1724 11.1224 39.2586C10.2557 39.5184 9.35844 39.6616 8.45413 39.6844C5.74893 39.7307 0.144647 39.6905 0 39.6751ZM2.28973 37.5522C2.36667 37.5769 6.37676 37.6509 8.32795 37.583C10.1745 37.5151 11.8395 36.9659 13.1536 35.5743C14.4677 34.1826 14.914 32.5349 14.9201 30.702C14.9201 29.0913 14.5785 27.5824 13.566 26.2771C12.1472 24.4473 10.2145 23.7191 7.96787 23.6975C6.23211 23.679 2.44668 23.716 2.28973 23.7315V37.5522Z" fill="#215257"/>
<path d="M42.6062 33.5997V39.6723H40.4519V25.7281C40.6612 25.7281 40.8551 25.6973 41.0459 25.6973C44.0147 25.6973 46.9836 25.6973 49.9524 25.6973C51.0696 25.6973 52.1652 25.8423 53.1131 26.4965C54.3995 27.3882 54.7965 28.6811 54.6088 30.1592C54.4211 31.6372 53.5532 32.7017 52.1621 33.2911C51.8851 33.4084 51.5897 33.4793 51.2388 33.5997L55.0889 39.7031C54.261 39.7031 53.5501 39.7278 52.833 39.6846C52.6761 39.6846 52.5037 39.4316 52.3929 39.265C51.245 37.5061 50.1001 35.7504 48.9737 33.9792C48.9007 33.8474 48.7904 33.7403 48.6568 33.6711C48.5232 33.6019 48.3723 33.5739 48.2228 33.5904C46.3763 33.6089 44.5328 33.5997 42.6062 33.5997ZM42.6585 27.7369V31.5076C45.2652 31.5076 47.8289 31.5076 50.3956 31.5076C50.5937 31.4976 50.7899 31.4644 50.9803 31.4088C51.9036 31.1867 52.3745 30.5325 52.3622 29.5389C52.3754 29.1267 52.2348 28.7243 51.9679 28.4104C51.701 28.0966 51.3269 27.8938 50.9188 27.8418C50.5819 27.7781 50.2399 27.7451 49.897 27.7431C48.0166 27.7431 46.1393 27.7431 44.2589 27.7431L42.6585 27.7369Z" fill="#215257"/>
<path d="M28.2122 25.3021C30.388 25.2867 32.3885 25.7989 34.155 27.1319C37.7404 29.8411 37.725 35.4262 34.275 38.194C30.825 40.9619 25.0423 40.8199 21.8908 37.8855C21.1242 37.1784 20.5243 36.3091 20.1346 35.3405C19.745 34.372 19.5754 33.3286 19.6382 32.2861C19.7009 31.2437 19.9945 30.2283 20.4975 29.3138C21.0006 28.3993 21.7005 27.6086 22.5463 26.9992C24.2359 25.7526 26.1594 25.299 28.2122 25.3021ZM28.3722 38.0583C29.4535 38.0915 30.5266 37.8606 31.499 37.3856C33.1855 36.5463 34.3273 35.2688 34.5243 33.3187C34.7336 31.2358 33.9457 29.6159 32.2161 28.4464C30.0218 26.9684 26.4426 26.9714 24.239 28.4464C23.6213 28.8429 23.0977 29.3702 22.7049 29.9912C22.3121 30.6122 22.0596 31.3119 21.9652 32.0411C21.8707 32.7704 21.9366 33.5115 22.1583 34.2125C22.3799 34.9135 22.7518 35.5573 23.248 36.0989C24.5837 37.5707 26.3164 38.0737 28.3722 38.0583Z" fill="#215257"/>
<path d="M57.2094 4.43662C59.3852 4.42119 61.3857 4.93341 63.1522 6.26951C66.7376 8.97872 66.7222 14.5638 63.2722 17.3285C59.8222 20.0933 54.0395 19.9575 50.8911 17.02C50.124 16.3132 49.5236 15.444 49.1336 14.4754C48.7437 13.5068 48.5739 12.4632 48.6367 11.4206C48.6995 10.3779 48.9932 9.36241 49.4966 8.44789C49.9999 7.53336 50.7003 6.74282 51.5466 6.13374C53.2424 4.88712 55.1536 4.43353 57.2094 4.43662ZM57.3694 17.1928C58.4515 17.2286 59.526 16.9987 60.4993 16.5232C62.1828 15.6808 63.3245 14.4033 63.5215 12.4532C63.7308 10.3735 62.9429 8.75039 61.2133 7.58092C59.019 6.10288 55.4428 6.10597 53.2393 7.58092C52.6213 7.97751 52.0974 8.50489 51.7043 9.12603C51.3112 9.74717 51.0584 10.447 50.9637 11.1765C50.8689 11.906 50.9346 12.6475 51.156 13.3488C51.3774 14.0502 51.7491 14.6945 52.2452 15.2365C53.5809 16.6929 55.3136 17.2051 57.3694 17.2051V17.1928Z" fill="#215257"/>
<path d="M116.948 31.1925V33.2506H109.811V37.6415H121.278V39.6781H107.568V25.7092H120.663V27.7334H109.814V31.1925H116.948Z" fill="#215257"/>
<path d="M77.8628 37.6539H89.3422V39.6904H75.6469V25.7092H88.739V27.7427H77.8228C77.8228 28.8566 77.8505 31.1894 77.8505 31.1894H84.972V33.2568H77.8628V37.6539Z" fill="#215257"/>
<path d="M85.2493 15.2368C86.5357 15.9002 86.7666 16.2612 89.124 16.866C90.792 17.3042 92.2231 17.4492 93.7712 16.9493C94.7498 16.6408 95.5869 16.11 95.8485 15.0085C95.9661 14.5661 95.9237 14.0963 95.7288 13.6823C95.5339 13.2682 95.1991 12.9368 94.7837 12.7467C93.6634 12.182 92.4386 12.219 91.2321 12.1141C89.958 11.9999 88.6747 11.9043 87.419 11.6667C86.0956 11.4167 85.1662 10.6453 84.9262 9.22282C84.6738 7.72627 85.1139 6.50435 86.3449 5.60025C87.2844 4.94151 88.3887 4.55891 89.5333 4.49557C92.2412 4.2445 94.9562 4.8952 97.2581 6.34698C97.3042 6.37475 97.3473 6.40869 97.4458 6.47658L96.3286 8.30329C95.0869 7.47867 93.6965 6.9053 92.2354 6.61543C90.8844 6.36549 89.5333 6.30686 88.2346 6.92399C87.6652 7.18628 87.1759 7.56891 87.1051 8.26935C87.0716 8.44015 87.073 8.61599 87.1092 8.78624C87.1454 8.95648 87.2157 9.11759 87.3158 9.2598C87.416 9.40202 87.5438 9.52238 87.6917 9.61362C87.8396 9.70485 88.0044 9.76506 88.1761 9.79059C89.0994 9.98807 90.0657 10.0374 91.0136 10.1485C92.337 10.3059 93.6911 10.3337 94.9745 10.6484C97.0026 11.1514 98.0305 12.4288 98.1813 14.2679C98.3321 16.107 97.3935 17.6313 95.5992 18.5354C94.0604 19.313 92.3955 19.3901 90.7213 19.2451C88.6272 19.0618 86.5956 18.4361 84.76 17.4091C84.5758 17.2913 84.4018 17.1581 84.2399 17.0111C84.2399 17.0111 85.0462 15.5824 85.2493 15.2368Z" fill="#215257"/>
<path d="M124.251 36.0586C125.538 36.7189 125.769 37.0799 128.126 37.6847C129.794 38.1229 131.222 38.2679 132.773 37.768C133.752 37.4595 134.589 36.9287 134.851 35.8272C134.97 35.3836 134.928 34.912 134.732 34.4966C134.536 34.0812 134.2 33.749 133.783 33.5592C132.666 32.9945 131.441 33.0315 130.234 32.9421C128.96 32.831 127.677 32.7322 126.421 32.4946C125.095 32.2447 124.168 31.4764 123.928 30.0508C123.676 28.5542 124.113 27.3354 125.344 26.4282C126.285 25.7697 127.39 25.3871 128.535 25.3235C131.242 25.0736 133.956 25.7242 136.257 27.1749L136.448 27.3045C136.072 27.9217 135.719 28.5141 135.34 29.1343C134.1 28.3095 132.71 27.737 131.25 27.4496C129.896 27.1965 128.545 27.141 127.249 27.7581C126.68 28.0204 126.19 28.4061 126.12 29.1035C126.086 29.2741 126.087 29.4499 126.122 29.6201C126.158 29.7903 126.228 29.9515 126.328 30.0938C126.428 30.236 126.556 30.3565 126.703 30.4477C126.851 30.539 127.016 30.5992 127.187 30.6247C128.111 30.8222 129.077 30.8716 130.025 30.9857C131.348 31.1431 132.706 31.1678 133.989 31.4856C136.017 31.9855 137.045 33.263 137.196 35.102C137.347 36.9411 136.408 38.4654 134.614 39.3695C133.075 40.1471 131.41 40.2273 129.736 40.0823C127.64 39.8922 125.608 39.2613 123.771 38.2309C123.588 38.1136 123.415 37.9804 123.254 37.8328C123.254 37.8328 124.051 36.4011 124.251 36.0586Z" fill="#215257"/>
<path d="M69.1535 15.2367C70.4399 15.9001 70.6707 16.2612 73.0251 16.866C74.6962 17.3041 76.1242 17.4492 77.6753 16.9493C78.654 16.6407 79.4911 16.11 79.7527 15.0084C79.8694 14.5656 79.8262 14.0958 79.6308 13.6819C79.4354 13.268 79.1003 12.9367 78.6848 12.7466C77.5645 12.1819 76.3396 12.2189 75.1363 12.114C73.8622 11.9999 72.5757 11.9042 71.3232 11.6666C69.9967 11.4167 69.0704 10.6452 68.8303 9.22275C68.5779 7.7262 69.015 6.50427 70.246 5.60017C71.1867 4.94163 72.2919 4.55908 73.4375 4.4955C76.1444 4.24395 78.8585 4.89471 81.1591 6.3469C81.2053 6.37467 81.2484 6.40862 81.3499 6.4765C80.9745 7.09364 80.6175 7.683 80.242 8.3063C79.0014 7.48177 77.612 6.90839 76.1519 6.61844C74.7978 6.3685 73.4467 6.30987 72.151 6.92701C71.5817 7.18929 71.0954 7.57191 71.0215 8.27236C70.9885 8.44312 70.9902 8.61882 71.0266 8.7889C71.063 8.95898 71.1334 9.1199 71.2334 9.26202C71.3335 9.40413 71.4612 9.52449 71.6088 9.61584C71.7564 9.70719 71.921 9.76766 72.0926 9.7936C73.0158 9.99108 73.9822 10.0405 74.9301 10.1515C76.2535 10.3089 77.6107 10.3367 78.894 10.6514C80.9222 11.1544 81.9501 12.4318 82.1009 14.2709C82.2517 16.11 81.313 17.6343 79.5157 18.5384C77.9769 19.316 76.3119 19.3931 74.6408 19.2481C72.5459 19.0643 70.5133 18.4386 68.6764 17.4121C68.4922 17.2943 68.3182 17.1611 68.1563 17.0141C68.1563 17.0141 68.9534 15.5823 69.1535 15.2367Z" fill="#215257"/>
<path d="M70.8061 25.6631V39.672C70.4951 39.7592 70.1654 39.7524 69.8583 39.6525C69.5512 39.5526 69.2803 39.364 69.0795 39.1104C66.5467 36.2346 60.8501 29.8071 60.7978 29.838V39.6782H58.6588V25.7063C59.2436 25.6415 59.7422 25.5705 60.2376 26.1321C62.7828 29.0203 68.6641 35.4107 68.6641 35.4107L68.6302 25.6538L70.8061 25.6631Z" fill="#215257"/>
<path d="M94.6542 37.6571H105.041V39.6659H92.4937V25.7156H94.648L94.6542 37.6571Z" fill="#215257"/>
<path d="M104.33 18.8531H102.084V4.76392H104.33C104.33 4.76392 104.33 18.6001 104.33 18.8531Z" fill="#215257"/>
<path d="M118.616 19.1957C118.974 18.2345 119.174 17.2217 119.21 16.1965L116.422 16.0298C116.422 16.0298 116.422 16.1903 116.401 16.4402C115.751 15.6256 115.243 14.9684 115.053 14.6876C115.053 14.6876 117.65 13.7279 117.57 11.3674C117.49 9.00685 115.025 8.46069 114.123 8.46069C113.378 8.46069 111.31 8.79703 110.827 10.7626C110.662 11.4756 110.738 12.2235 111.043 12.8886L111.498 13.9192C111.498 13.9192 109.282 15.6194 109.31 18.1682C109.338 20.717 111.058 22.0099 112.646 22.34C113.522 22.5112 114.424 22.4923 115.293 22.2845C115.787 22.1953 116.256 22.0029 116.671 21.7198C116.815 21.6356 116.95 21.5397 117.078 21.4329L117.872 22.4511H121.279C121.279 22.4511 120.026 20.9083 118.616 19.1957ZM114.049 10.9693C114.144 10.9503 114.241 10.9509 114.335 10.9711C114.43 10.9912 114.519 11.0306 114.597 11.0866C115.339 11.6173 113.849 12.5307 113.849 12.5307C113.145 11.3427 113.674 11.0341 114.049 10.9693ZM112.701 19.5136C111.387 18.1682 112.864 16.0854 112.864 16.0854L115.367 19.2636C114.148 20.7694 112.701 19.5136 112.701 19.5136Z" fill="#BDBDBD"/>
</svg>
