<svg viewBox="0 0 136 137" fill="none" xmlns="http://www.w3.org/2000/svg">
<path d="M6.33215 68.0921L67.914 130.182L130.015 68.0921L68.1765 5.99536L6.33215 68.0921Z" fill="url(#paint0_radial_191_47)"/>
<path d="M60.5196 72.8548C60.5196 72.8548 70.8653 70.621 70.8653 58.5085C70.8653 46.396 60.0522 42.5703 55.2186 42.5703H39.0597V89.2616H48.458V71.7957L60.3659 89.2616H71.3135L60.5196 72.8548ZM56.96 65.0494H48.6884V52.0382H56.1021C60.9421 52.218 61.1405 57.0899 61.1405 57.0899V60.2416C61.1405 63.9453 56.96 65.0494 56.96 65.0494Z" fill="url(#paint1_radial_191_47)"/>
<path d="M71.3136 42.8656C71.3136 42.8656 74.6875 44.6757 76.7554 52.0382C76.7554 52.0382 92.1908 50.6261 92.1908 66.1599C92.1908 81.6937 76.3136 80.2237 76.3136 80.2237V67.4757C75.0223 70.6473 72.9362 73.431 70.2572 75.5572L79.1433 89.0818C79.1433 89.0818 101.871 88.7866 101.551 65.9737C101.295 49.6889 92.7926 42.5703 71.3456 42.5703" fill="url(#paint2_radial_191_47)"/>
<path d="M68.0864 0L0 68.092L68.0864 136.184L136 68.092L68.0864 0ZM3.69403 68.092L68.1761 3.70371L132.479 68.092L68.1761 132.506L3.69403 68.092Z" fill="#A9AAAF"/>
<defs>
<radialGradient id="paint0_radial_191_47" cx="0" cy="0" r="1" gradientUnits="userSpaceOnUse" gradientTransform="translate(68.1765 68.0921) scale(61.8892 62.0518)">
<stop stop-color="white"/>
<stop offset="0.75" stop-color="#ABADB2"/>
</radialGradient>
<radialGradient id="paint1_radial_191_47" cx="0" cy="0" r="1" gradientUnits="userSpaceOnUse" gradientTransform="translate(55.1866 65.9159) scale(20.0258 20.0784)">
<stop stop-color="#007D81"/>
<stop offset="1" stop-color="#00494F"/>
</radialGradient>
<radialGradient id="paint2_radial_191_47" cx="0" cy="0" r="1" gradientUnits="userSpaceOnUse" gradientTransform="translate(22399.6 13769.1) scale(966.76 1436.74)">
<stop stop-color="#007D81"/>
<stop offset="1" stop-color="#00494F"/>
</radialGradient>
</defs>
</svg>
